<svg width="800" height="1000" viewBox="0 0 800 1000" fill="none" xmlns="http://www.w3.org/2000/svg">
  <rect width="800" height="1000" fill="#FBF4EC"/>
  <circle cx="166" cy="225" r="110" fill="#C89F62" fill-opacity="0.24"/>
  <circle cx="648" cy="797" r="126" fill="#DF5C43" fill-opacity="0.16"/>
  <path d="M246 413C246 313.589 326.589 233 426 233H434C533.411 233 614 313.589 614 413V673C614 723.258 573.258 764 523 764H337C286.742 764 246 723.258 246 673V413Z" fill="#22171B"/>
  <path d="M312 463H548V675C548 689.912 535.912 702 521 702H339C324.088 702 312 689.912 312 675V463Z" fill="#FFF7EE"/>
  <path d="M337 463C337 411.637 378.637 370 430 370V370C481.363 370 523 411.637 523 463" stroke="#C89F62" stroke-width="26" stroke-linecap="round"/>
  <text x="145" y="915" fill="#22171B" font-family="Arial, sans-serif" font-size="36" letter-spacing="4">BOLSA MARFIM EDIT</text>
</svg>
