<svg width="800" height="1000" viewBox="0 0 800 1000" fill="none" xmlns="http://www.w3.org/2000/svg">
  <rect width="800" height="1000" fill="#FBF4ED"/>
  <rect x="132" y="163" width="536" height="674" rx="40" fill="#FFFDF9"/>
  <circle cx="180" cy="817" r="90" fill="#C89F62" fill-opacity="0.32"/>
  <circle cx="625" cy="221" r="104" fill="#22171B" fill-opacity="0.08"/>
  <path d="M334 242H467C506.765 242 539 274.235 539 314V439H262V314C262 274.235 294.235 242 334 242Z" fill="#C89F62"/>
  <path d="M280 467H520V719C520 779.199 471.199 828 411 828H389C328.801 828 280 779.199 280 719V467Z" fill="#E7D4C4"/>
  <path d="M280 558H520V597L429 831H371L280 597V558Z" fill="#22171B"/>
  <text x="87" y="925" fill="#22171B" font-family="Arial, sans-serif" font-size="36" letter-spacing="4">CONJUNTO AREIA LUXO</text>
</svg>
