<svg width="800" height="1000" viewBox="0 0 800 1000" fill="none" xmlns="http://www.w3.org/2000/svg">
  <rect width="800" height="1000" fill="#F3E8DB"/>
  <circle cx="628" cy="193" r="100" fill="#22171B" fill-opacity="0.08"/>
  <path d="M251 253H548V377H251V253Z" fill="#C89F62"/>
  <path d="M279 395H520V735C520 783.049 481.049 822 433 822H367C318.951 822 280 783.049 280 735V396C280 395.448 280.448 395 281 395H279Z" fill="#FFF9F2"/>
  <path d="M280 456H520V494L456 822H344L280 494V456Z" fill="#DF5C43"/>
  <path d="M332 234C332 196.445 362.445 166 400 166C437.555 166 468 196.445 468 234V253H332V234Z" fill="#22171B"/>
  <path d="M318 520H482" stroke="#22171B" stroke-width="18" stroke-linecap="round"/>
  <text x="121" y="921" fill="#22171B" font-family="Arial, sans-serif" font-size="36" letter-spacing="4">SET LINHO BISSAU</text>
</svg>
