<svg width="800" height="1000" viewBox="0 0 800 1000" fill="none" xmlns="http://www.w3.org/2000/svg">
  <rect width="800" height="1000" fill="#F5EBDD"/>
  <path d="M0 121C113 171 182 209 272 196C365 183 404 96 493 93C588 90 657 171 800 222V1000H0V121Z" fill="#22171B"/>
  <path d="M0 284C96 335 163 356 247 336C370 306 416 194 539 190C641 186 721 254 800 316V1000H0V284Z" fill="#DF5C43"/>
  <path d="M0 441C145 490 243 491 343 467C452 440 542 358 641 356C704 355 757 382 800 413V1000H0V441Z" fill="#FFF7F0"/>
  <circle cx="606" cy="200" r="82" fill="#C89F62" fill-opacity="0.55"/>
  <text x="84" y="140" fill="#22171B" font-family="Georgia, serif" font-size="44" letter-spacing="7">LOOKBOOK</text>
  <text x="84" y="194" fill="#6D5B64" font-family="Arial, sans-serif" font-size="18" letter-spacing="4">troque este SVG por foto real quando quiser</text>
</svg>
